<?xml version="1.0" encoding="UTF-8" standalone="no"?>
<!-- Generator: Adobe Illustrator 19.0.0, SVG Export Plug-In . SVG Version: 6.00 Build 0)  -->

<svg
   version="1.1"
   id="Capa_1"
   x="0px"
   y="0px"
   viewBox="0 0 102.90266 102.90302"
   xml:space="preserve"
   sodipodi:docname="user.svg"
   inkscape:version="1.1 (ce6663b3b7, 2021-05-25)"
   width="102.90266"
   height="102.90302"
   xmlns:inkscape="http://www.inkscape.org/namespaces/inkscape"
   xmlns:sodipodi="http://sodipodi.sourceforge.net/DTD/sodipodi-0.dtd"
   xmlns="http://www.w3.org/2000/svg"
   xmlns:svg="http://www.w3.org/2000/svg"><defs
   id="defs107"><inkscape:path-effect
     effect="powerclip"
     id="path-effect1462"
     is_visible="true"
     lpeversion="1"
     inverse="true"
     flatten="false"
     hide_clip="false"
     message="Utilise la règle de remplissage « fill-rule: evenodd » de la boîte de dialogue &lt;b&gt;Fond et contour&lt;/b&gt; en l'absence de résultat de mise à plat après une conversion en chemin." /><clipPath
     clipPathUnits="userSpaceOnUse"
     id="clipPath1458"><circle
       style="display:none;fill:#797876;fill-opacity:0.670931;stroke-width:0.346882"
       cx="-44.641968"
       cy="148.05045"
       r="80.476593"
       id="circle1460"
       d="m 35.834625,148.05045 a 80.476593,80.476593 0 0 1 -80.476593,80.47659 80.476593,80.476593 0 0 1 -80.476592,-80.47659 80.476593,80.476593 0 0 1 80.476592,-80.476597 80.476593,80.476593 0 0 1 80.476593,80.476597 z" /><path
       id="lpe_path-effect1462"
       style="fill:#797876;fill-opacity:0.670931;stroke-width:0.346882"
       class="powerclip"
       d="M -130.11856,62.573944 H 40.834442 V 233.52695 H -130.11856 Z M 35.834625,148.05045 a 80.476593,80.476593 0 0 0 -80.476593,-80.476597 80.476593,80.476593 0 0 0 -80.476592,80.476597 80.476593,80.476593 0 0 0 80.476592,80.47659 80.476593,80.476593 0 0 0 80.476593,-80.47659 z" /></clipPath></defs><sodipodi:namedview
   id="namedview105"
   pagecolor="#ffffff"
   bordercolor="#666666"
   borderopacity="1.0"
   inkscape:pageshadow="2"
   inkscape:pageopacity="0"
   inkscape:pagecheckerboard="false"
   showgrid="false"
   inkscape:zoom="2.6516504"
   inkscape:cx="-50.723127"
   inkscape:cy="-14.896383"
   inkscape:window-width="1920"
   inkscape:window-height="1016"
   inkscape:window-x="1920"
   inkscape:window-y="27"
   inkscape:window-maximized="1"
   inkscape:current-layer="Capa_1"
   fit-margin-top="0"
   fit-margin-left="0"
   fit-margin-right="0"
   fit-margin-bottom="0" />


















<path
   style="fill:#302f2e;fill-opacity:0.381893;stroke-width:0.221773"
   d="m 63.228436,54.989113 c 5.73239,-3.816276 9.513179,-10.329312 9.513179,-17.731215 0,-11.757528 -9.532698,-21.290228 -21.290222,-21.290228 -11.75753,0 -21.29023,9.5327 -21.29023,21.290228 0,7.401903 3.780789,13.914939 9.513181,17.731215 0,0 0.0019,0.0016 0.0032,0.0016 -0.0019,0 -0.0019,-0.0016 -0.0019,-0.0016 -13.721504,4.135623 -24.40565,15.272185 -27.845796,29.282939 l 0.0018,0.002 c 0.560642,0.67597 1.142576,1.33596 1.736928,1.98353 0.143708,0.15791 0.294515,0.30871 0.441772,0.46307 0.457739,0.48613 0.920802,0.96515 1.396287,1.43354 0.196935,0.19339 0.397417,0.37968 0.597899,0.56952 0.439995,0.41871 0.885317,0.83209 1.339512,1.23484 0.225321,0.1987 0.454189,0.39563 0.681287,0.59079 0.445315,0.38146 0.895962,0.7558 1.355477,1.12129 0.24129,0.19339 0.484352,0.38323 0.727414,0.57306 0.464834,0.35839 0.936771,0.70613 1.414027,1.04677 0.24661,0.17565 0.489672,0.35484 0.739837,0.52693 0.503865,0.34774 1.016604,0.68129 1.532891,1.01128 0.232424,0.14726 0.459515,0.29985 0.693709,0.44533 0.596127,0.36725 1.2029,0.71855 1.814991,1.06274 0.161451,0.0905 0.319354,0.18806 0.482582,0.27678 0.791284,0.43289 1.59499,0.84805 2.411119,1.24015 0.0195,0.009 0.04079,0.0177 0.06029,0.0266 0.778868,0.37258 1.570152,0.72565 2.370311,1.05919 0.248387,0.10468 0.502094,0.19693 0.752252,0.29629 0.578386,0.23064 1.156772,0.45774 1.745803,0.66709 0.312257,0.111778 0.628062,0.212898 0.942089,0.319348 0.535807,0.18097 1.075155,0.35662 1.618058,0.51807 0.344192,0.1029 0.690161,0.19871 1.037901,0.29451 0.525154,0.14548 1.053864,0.28387 1.587893,0.41339 0.360162,0.0869 0.722095,0.17032 1.085806,0.25016 0.534029,0.11709 1.069828,0.22354 1.609183,0.3229 0.365482,0.0674 0.729192,0.1366 1.098222,0.19516 0.557095,0.0905 1.117733,0.16678 1.680155,0.23951 0.354837,0.0462 0.707897,0.0976 1.06451,0.13484 0.620965,0.0674 1.24725,0.11533 1.873541,0.15968 0.303383,0.0213 0.603224,0.0533 0.906607,0.0692 0.934994,0.0532 1.873542,0.0834 2.820958,0.0834 0.947415,0 1.885957,-0.0302 2.820962,-0.0798 0.303383,-0.016 0.604996,-0.0479 0.9066,-0.0692 0.628063,-0.0444 1.254347,-0.0923 1.873543,-0.15967 0.356613,-0.0391 0.709677,-0.0887 1.064512,-0.13485 0.562418,-0.0727 1.123059,-0.14903 1.680159,-0.23951 0.367249,-0.0603 0.732727,-0.12774 1.098214,-0.19516 0.539352,-0.0994 1.076926,-0.2058 1.60919,-0.3229 0.363708,-0.0798 0.725639,-0.16323 1.085799,-0.25016 0.532256,-0.12952 1.060964,-0.2679 1.587893,-0.41338 0.34596,-0.0958 0.693706,-0.19162 1.037896,-0.29452 0.544678,-0.16323 1.08226,-0.33887 1.618056,-0.51806 0.314035,-0.10645 0.63161,-0.20758 0.942098,-0.319358 0.587255,-0.21112 1.167414,-0.43645 1.745795,-0.66709 0.250161,-0.0994 0.503871,-0.19338 0.752262,-0.29628 0.79661,-0.33355 1.584345,-0.68307 2.359665,-1.05565 0.02306,-0.0106 0.0479,-0.0213 0.07096,-0.0319 0.81612,-0.39209 1.619826,-0.80725 2.411117,-1.24016 0.163224,-0.0887 0.321124,-0.18629 0.482574,-0.27677 0.6121,-0.3442 1.21888,-0.69548 1.815,-1.06273 0.23419,-0.14371 0.46306,-0.2963 0.6937,-0.44533 0.5163,-0.32999 1.02903,-0.66532 1.53291,-1.01128 0.24838,-0.1721 0.49321,-0.34952 0.73984,-0.52693 0.47725,-0.34242 0.94918,-0.69016 1.41402,-1.04678 0.24483,-0.18806 0.48613,-0.37967 0.72742,-0.57306 0.45773,-0.36548 0.91015,-0.73984 1.35547,-1.12128 0.22887,-0.19516 0.45774,-0.3921 0.68129,-0.59081 0.45419,-0.40273 0.89951,-0.81612 1.33951,-1.23483 0.19871,-0.18984 0.40097,-0.3779 0.5979,-0.56951 0.47548,-0.46839 0.94032,-0.94742 1.39628,-1.43354 0.14548,-0.15613 0.29629,-0.30694 0.44178,-0.46307 0.59435,-0.64758 1.17628,-1.30757 1.73693,-1.98354 l 0.002,-0.002 c -3.439,-14.012629 -14.12315,-25.14919 -27.844697,-29.284813 z"
   id="path72" /><g
   id="g74"
   transform="matrix(0.34688186,0,0,0.34688186,-71.709285,-85.682885)">
</g><g
   id="g76"
   transform="matrix(0.34688186,0,0,0.34688186,-71.709285,-85.682885)">
</g><g
   id="g78"
   transform="matrix(0.34688186,0,0,0.34688186,-71.709285,-85.682885)">
</g><g
   id="g80"
   transform="matrix(0.34688186,0,0,0.34688186,-71.709285,-85.682885)">
</g><g
   id="g82"
   transform="matrix(0.34688186,0,0,0.34688186,-71.709285,-85.682885)">
</g><g
   id="g84"
   transform="matrix(0.34688186,0,0,0.34688186,-71.709285,-85.682885)">
</g><g
   id="g86"
   transform="matrix(0.34688186,0,0,0.34688186,-71.709285,-85.682885)">
</g><g
   id="g88"
   transform="matrix(0.34688186,0,0,0.34688186,-71.709285,-85.682885)">
</g><g
   id="g90"
   transform="matrix(0.34688186,0,0,0.34688186,-71.709285,-85.682885)">
</g><g
   id="g92"
   transform="matrix(0.34688186,0,0,0.34688186,-71.709285,-85.682885)">
</g><g
   id="g94"
   transform="matrix(0.34688186,0,0,0.34688186,-71.709285,-85.682885)">
</g><g
   id="g96"
   transform="matrix(0.34688186,0,0,0.34688186,-71.709285,-85.682885)">
</g><g
   id="g98"
   transform="matrix(0.34688186,0,0,0.34688186,-71.709285,-85.682885)">
</g><g
   id="g100"
   transform="matrix(0.34688186,0,0,0.34688186,-71.709285,-85.682885)">
</g><g
   id="g102"
   transform="matrix(0.34688186,0,0,0.34688186,-71.709285,-85.682885)">
</g>
<path
   style="fill:#ffffff;fill-opacity:1;stroke-width:10.3415;stroke-linecap:round;stroke-linejoin:round;stop-color:#000000"
   id="rect1107"
   width="160.953"
   height="160.953"
   x="-125.11856"
   y="67.573944"
   clip-path="url(#clipPath1458)"
   inkscape:path-effect="#path-effect1462"
   d="M -125.11856,67.573944 H 35.834442 V 228.52695 H -125.11856 Z"
   sodipodi:type="rect"
   transform="matrix(0.63933355,0,0,0.63933355,79.992494,-43.20229)" /></svg>
