<?xml version="1.0" encoding="UTF-8" standalone="no"?>
<!-- Generator: Adobe Illustrator 19.0.0, SVG Export Plug-In . SVG Version: 6.00 Build 0)  -->

<svg
   version="1.1"
   id="Capa_1"
   x="0px"
   y="0px"
   viewBox="0 0 160.95318 160.95338"
   xml:space="preserve"
   sodipodi:docname="user.svg"
   inkscape:version="1.1 (ce6663b3b7, 2021-05-25)"
   width="160.95319"
   height="160.95338"
   xmlns:inkscape="http://www.inkscape.org/namespaces/inkscape"
   xmlns:sodipodi="http://sodipodi.sourceforge.net/DTD/sodipodi-0.dtd"
   xmlns="http://www.w3.org/2000/svg"
   xmlns:svg="http://www.w3.org/2000/svg"><defs
   id="defs107"><inkscape:path-effect
     effect="powerclip"
     id="path-effect1462"
     is_visible="true"
     lpeversion="1"
     inverse="true"
     flatten="false"
     hide_clip="false"
     message="Utilise la règle de remplissage « fill-rule: evenodd » de la boîte de dialogue &lt;b&gt;Fond et contour&lt;/b&gt; en l'absence de résultat de mise à plat après une conversion en chemin." /><clipPath
     clipPathUnits="userSpaceOnUse"
     id="clipPath1458"><circle
       style="display:none;fill:#797876;fill-opacity:0.670931;stroke-width:0.346882"
       cx="-44.641968"
       cy="148.05045"
       r="80.476593"
       id="circle1460"
       d="m 35.834625,148.05045 a 80.476593,80.476593 0 0 1 -80.476593,80.47659 80.476593,80.476593 0 0 1 -80.476592,-80.47659 80.476593,80.476593 0 0 1 80.476592,-80.476597 80.476593,80.476593 0 0 1 80.476593,80.476597 z" /><path
       id="lpe_path-effect1462"
       style="fill:#797876;fill-opacity:0.670931;stroke-width:0.346882"
       class="powerclip"
       d="M -130.11856,62.573944 H 40.834625 V 233.52695 H -130.11856 Z M 35.834625,148.05045 a 80.476593,80.476593 0 0 0 -80.476593,-80.476597 80.476593,80.476593 0 0 0 -80.476592,80.476597 80.476593,80.476593 0 0 0 80.476592,80.47659 80.476593,80.476593 0 0 0 80.476593,-80.47659 z" /></clipPath></defs><sodipodi:namedview
   id="namedview105"
   pagecolor="#ffffff"
   bordercolor="#666666"
   borderopacity="1.0"
   inkscape:pageshadow="2"
   inkscape:pageopacity="0"
   inkscape:pagecheckerboard="false"
   showgrid="false"
   inkscape:zoom="2.6516504"
   inkscape:cx="51.100251"
   inkscape:cy="85.041377"
   inkscape:window-width="1920"
   inkscape:window-height="1016"
   inkscape:window-x="0"
   inkscape:window-y="27"
   inkscape:window-maximized="1"
   inkscape:current-layer="Capa_1"
   fit-margin-top="0"
   fit-margin-left="0"
   fit-margin-right="0"
   fit-margin-bottom="0" />


















<path
   style="fill:#302f2e;fill-opacity:0.381893;stroke-width:0.346882"
   d="m 98.897415,86.010051 c 8.966195,-5.969143 14.879835,-16.15637 14.879835,-27.733899 0,-18.390288 -14.910365,-33.300658 -33.300645,-33.300658 -18.39029,0 -33.30066,14.91037 -33.30066,33.300658 0,11.577529 5.91364,21.764756 14.87984,27.733899 0,0 0.003,0.0028 0.005,0.0028 -0.003,0 -0.003,-0.0028 -0.003,-0.0028 -21.4622,6.468653 -38.17358,23.887669 -43.554411,45.802279 l 0.0028,0.003 c 0.876917,1.0573 1.787135,2.08962 2.716779,3.10251 0.224779,0.24698 0.460659,0.48286 0.690988,0.72429 0.715964,0.76037 1.440254,1.50963 2.183974,2.24225 0.30803,0.30248 0.62161,0.59386 0.93519,0.89079 0.68821,0.65491 1.38475,1.3015 2.09517,1.93144 0.35243,0.3108 0.71041,0.61883 1.06562,0.92409 0.69653,0.59664 1.4014,1.18217 2.12014,1.75384 0.37741,0.30248 0.75759,0.59941 1.13777,0.89634 0.72706,0.56056 1.46523,1.10447 2.21172,1.63728 0.38573,0.27473 0.76591,0.55501 1.1572,0.82419 0.78811,0.54391 1.5901,1.06562 2.39764,1.58178 0.36354,0.23033 0.71874,0.46899 1.08505,0.69654 0.93242,0.57444 1.88149,1.1239 2.83888,1.66226 0.25253,0.14153 0.49951,0.29416 0.75482,0.43291 1.23767,0.67711 2.49477,1.32647 3.7713,1.93976 0.0305,0.0139 0.0638,0.0277 0.0943,0.0416 1.21825,0.58276 2.45592,1.135 3.70747,1.65671 0.38851,0.16372 0.78534,0.30803 1.17662,0.46343 0.90467,0.36076 1.80934,0.71596 2.73066,1.04342 0.48841,0.17483 0.98237,0.33301 1.47355,0.49951 0.83807,0.28306 1.68168,0.55779 2.53085,0.81032 0.53836,0.16095 1.0795,0.3108 1.62341,0.46066 0.82141,0.22755 1.64838,0.444 2.48367,0.64658 0.56334,0.13598 1.12945,0.26641 1.69834,0.39129 0.83529,0.18315 1.67335,0.34965 2.51697,0.50506 0.57166,0.10545 1.14055,0.21367 1.71776,0.30525 0.87137,0.14153 1.74828,0.26086 2.62798,0.37463 0.55501,0.0722 1.10724,0.15263 1.66503,0.21091 0.97127,0.10545 1.95086,0.18038 2.93046,0.24975 0.47453,0.0333 0.94352,0.0833 1.41805,0.10823 1.46245,0.0832 2.93046,0.13043 4.41234,0.13043 1.48188,0 2.94988,-0.0472 4.41234,-0.12488 0.47453,-0.025 0.94629,-0.0749 1.41805,-0.10823 0.98237,-0.0694 1.96196,-0.1443 2.93046,-0.24975 0.55778,-0.0611 1.11002,-0.13875 1.66503,-0.21091 0.87969,-0.11377 1.75661,-0.2331 2.62798,-0.37463 0.57443,-0.0943 1.14609,-0.1998 1.71776,-0.30525 0.84361,-0.15541 1.68445,-0.32191 2.51697,-0.50506 0.56889,-0.12488 1.135,-0.25531 1.69833,-0.39129 0.832515,-0.20258 1.659485,-0.41903 2.483675,-0.64658 0.54113,-0.14986 1.08504,-0.29971 1.6234,-0.46066 0.85195,-0.25531 1.69279,-0.53004 2.53085,-0.81032 0.49119,-0.1665 0.98792,-0.32468 1.47356,-0.49951 0.91854,-0.33023 1.82599,-0.68266 2.73065,-1.04342 0.39129,-0.1554 0.78812,-0.30248 1.17663,-0.46343 1.246,-0.52171 2.47812,-1.0684 3.69082,-1.65116 0.0361,-0.0166 0.0749,-0.0333 0.111,-0.0499 1.27652,-0.61329 2.53362,-1.26265 3.7713,-1.93977 0.2553,-0.13875 0.50228,-0.29138 0.75481,-0.43291 0.9574,-0.53836 1.90647,-1.08782 2.83888,-1.66225 0.36631,-0.22478 0.72429,-0.46344 1.08505,-0.69654 0.80754,-0.51616 1.60953,-1.04065 2.39765,-1.58178 0.38851,-0.26918 0.77146,-0.54669 1.1572,-0.82419 0.74649,-0.53559 1.48465,-1.0795 2.21172,-1.63729 0.38295,-0.29415 0.76036,-0.59386 1.13777,-0.89634 0.71596,-0.57166 1.4236,-1.1572 2.12014,-1.75383 0.35798,-0.30526 0.71596,-0.61329 1.06562,-0.9241 0.71041,-0.62993 1.40695,-1.27652 2.09517,-1.93144 0.3108,-0.29693 0.62716,-0.59108 0.93519,-0.89079 0.74372,-0.73261 1.47078,-1.48188 2.18397,-2.24224 0.22755,-0.24421 0.46343,-0.48009 0.69099,-0.72429 0.92964,-1.0129 1.83986,-2.04522 2.71678,-3.10251 l 0.003,-0.003 C 137.07033,109.89772 120.35895,92.478704 98.896685,86.010051 Z"
   id="path72" /><g
   id="g74"
   transform="matrix(0.34688186,0,0,0.34688186,-13.658935,-27.632455)">
</g><g
   id="g76"
   transform="matrix(0.34688186,0,0,0.34688186,-13.658935,-27.632455)">
</g><g
   id="g78"
   transform="matrix(0.34688186,0,0,0.34688186,-13.658935,-27.632455)">
</g><g
   id="g80"
   transform="matrix(0.34688186,0,0,0.34688186,-13.658935,-27.632455)">
</g><g
   id="g82"
   transform="matrix(0.34688186,0,0,0.34688186,-13.658935,-27.632455)">
</g><g
   id="g84"
   transform="matrix(0.34688186,0,0,0.34688186,-13.658935,-27.632455)">
</g><g
   id="g86"
   transform="matrix(0.34688186,0,0,0.34688186,-13.658935,-27.632455)">
</g><g
   id="g88"
   transform="matrix(0.34688186,0,0,0.34688186,-13.658935,-27.632455)">
</g><g
   id="g90"
   transform="matrix(0.34688186,0,0,0.34688186,-13.658935,-27.632455)">
</g><g
   id="g92"
   transform="matrix(0.34688186,0,0,0.34688186,-13.658935,-27.632455)">
</g><g
   id="g94"
   transform="matrix(0.34688186,0,0,0.34688186,-13.658935,-27.632455)">
</g><g
   id="g96"
   transform="matrix(0.34688186,0,0,0.34688186,-13.658935,-27.632455)">
</g><g
   id="g98"
   transform="matrix(0.34688186,0,0,0.34688186,-13.658935,-27.632455)">
</g><g
   id="g100"
   transform="matrix(0.34688186,0,0,0.34688186,-13.658935,-27.632455)">
</g><g
   id="g102"
   transform="matrix(0.34688186,0,0,0.34688186,-13.658935,-27.632455)">
</g>
<path
   style="fill:#ffffff;fill-opacity:1;stroke-width:10.3415;stroke-linecap:round;stroke-linejoin:round;stop-color:#000000"
   id="rect1107"
   width="160.95319"
   height="160.953"
   x="-125.11856"
   y="67.573944"
   clip-path="url(#clipPath1458)"
   inkscape:path-effect="#path-effect1462"
   d="M -125.11856,67.573944 H 35.834625 V 228.52695 H -125.11856 Z"
   sodipodi:type="rect"
   transform="translate(125.11856,-67.573944)" /></svg>
